#usda 1.0
(
    defaultPrim = "red_towel"
    metersPerUnit = 1
    upAxis = "Z"
)

def Xform "red_towel"
{
    def Mesh "mesh"
    {
        uniform token subdivisionScheme = "none"
        bool doubleSided = 1
        color3f[] primvars:displayColor = [(0.901961, 0.050980, 0.039216)] (
            interpolation = "constant"
        )
        point3f[] points = [
            (-0.120000, -0.080000, 0.000000),
            (-0.100000, -0.080000, 0.000000),
            (-0.080000, -0.080000, 0.000000),
            (-0.060000, -0.080000, 0.000000),
            (-0.040000, -0.080000, 0.000000),
            (-0.020000, -0.080000, 0.000000),
            (0.000000, -0.080000, 0.000000),
            (0.020000, -0.080000, 0.000000),
            (0.040000, -0.080000, 0.000000),
            (0.060000, -0.080000, 0.000000),
            (0.080000, -0.080000, 0.000000),
            (0.100000, -0.080000, 0.000000),
            (0.120000, -0.080000, 0.000000),
            (-0.120000, -0.060000, 0.000000),
            (-0.100000, -0.060000, 0.000000),
            (-0.080000, -0.060000, 0.000000),
            (-0.060000, -0.060000, 0.000000),
            (-0.040000, -0.060000, 0.000000),
            (-0.020000, -0.060000, 0.000000),
            (0.000000, -0.060000, 0.000000),
            (0.020000, -0.060000, 0.000000),
            (0.040000, -0.060000, 0.000000),
            (0.060000, -0.060000, 0.000000),
            (0.080000, -0.060000, 0.000000),
            (0.100000, -0.060000, 0.000000),
            (0.120000, -0.060000, 0.000000),
            (-0.120000, -0.040000, 0.000000),
            (-0.100000, -0.040000, 0.000000),
            (-0.080000, -0.040000, 0.000000),
            (-0.060000, -0.040000, 0.000000),
            (-0.040000, -0.040000, 0.000000),
            (-0.020000, -0.040000, 0.000000),
            (0.000000, -0.040000, 0.000000),
            (0.020000, -0.040000, 0.000000),
            (0.040000, -0.040000, 0.000000),
            (0.060000, -0.040000, 0.000000),
            (0.080000, -0.040000, 0.000000),
            (0.100000, -0.040000, 0.000000),
            (0.120000, -0.040000, 0.000000),
            (-0.120000, -0.020000, 0.000000),
            (-0.100000, -0.020000, 0.000000),
            (-0.080000, -0.020000, 0.000000),
            (-0.060000, -0.020000, 0.000000),
            (-0.040000, -0.020000, 0.000000),
            (-0.020000, -0.020000, 0.000000),
            (0.000000, -0.020000, 0.000000),
            (0.020000, -0.020000, 0.000000),
            (0.040000, -0.020000, 0.000000),
            (0.060000, -0.020000, 0.000000),
            (0.080000, -0.020000, 0.000000),
            (0.100000, -0.020000, 0.000000),
            (0.120000, -0.020000, 0.000000),
            (-0.120000, 0.000000, 0.000000),
            (-0.100000, 0.000000, 0.000000),
            (-0.080000, 0.000000, 0.000000),
            (-0.060000, 0.000000, 0.000000),
            (-0.040000, 0.000000, 0.000000),
            (-0.020000, 0.000000, 0.000000),
            (0.000000, 0.000000, 0.000000),
            (0.020000, 0.000000, 0.000000),
            (0.040000, 0.000000, 0.000000),
            (0.060000, 0.000000, 0.000000),
            (0.080000, 0.000000, 0.000000),
            (0.100000, 0.000000, 0.000000),
            (0.120000, 0.000000, 0.000000),
            (-0.120000, 0.020000, 0.000000),
            (-0.100000, 0.020000, 0.000000),
            (-0.080000, 0.020000, 0.000000),
            (-0.060000, 0.020000, 0.000000),
            (-0.040000, 0.020000, 0.000000),
            (-0.020000, 0.020000, 0.000000),
            (0.000000, 0.020000, 0.000000),
            (0.020000, 0.020000, 0.000000),
            (0.040000, 0.020000, 0.000000),
            (0.060000, 0.020000, 0.000000),
            (0.080000, 0.020000, 0.000000),
            (0.100000, 0.020000, 0.000000),
            (0.120000, 0.020000, 0.000000),
            (-0.120000, 0.040000, 0.000000),
            (-0.100000, 0.040000, 0.000000),
            (-0.080000, 0.040000, 0.000000),
            (-0.060000, 0.040000, 0.000000),
            (-0.040000, 0.040000, 0.000000),
            (-0.020000, 0.040000, 0.000000),
            (0.000000, 0.040000, 0.000000),
            (0.020000, 0.040000, 0.000000),
            (0.040000, 0.040000, 0.000000),
            (0.060000, 0.040000, 0.000000),
            (0.080000, 0.040000, 0.000000),
            (0.100000, 0.040000, 0.000000),
            (0.120000, 0.040000, 0.000000),
            (-0.120000, 0.060000, 0.000000),
            (-0.100000, 0.060000, 0.000000),
            (-0.080000, 0.060000, 0.000000),
            (-0.060000, 0.060000, 0.000000),
            (-0.040000, 0.060000, 0.000000),
            (-0.020000, 0.060000, 0.000000),
            (0.000000, 0.060000, 0.000000),
            (0.020000, 0.060000, 0.000000),
            (0.040000, 0.060000, 0.000000),
            (0.060000, 0.060000, 0.000000),
            (0.080000, 0.060000, 0.000000),
            (0.100000, 0.060000, 0.000000),
            (0.120000, 0.060000, 0.000000),
            (-0.120000, 0.080000, 0.000000),
            (-0.100000, 0.080000, 0.000000),
            (-0.080000, 0.080000, 0.000000),
            (-0.060000, 0.080000, 0.000000),
            (-0.040000, 0.080000, 0.000000),
            (-0.020000, 0.080000, 0.000000),
            (0.000000, 0.080000, 0.000000),
            (0.020000, 0.080000, 0.000000),
            (0.040000, 0.080000, 0.000000),
            (0.060000, 0.080000, 0.000000),
            (0.080000, 0.080000, 0.000000),
            (0.100000, 0.080000, 0.000000),
            (0.120000, 0.080000, 0.000000)
        ]
        int[] faceVertexCounts = [
            3,
            3,
            3,
            3,
            3,
            3,
            3,
            3,
            3,
            3,
            3,
            3,
            3,
            3,
            3,
            3,
            3,
            3,
            3,
            3,
            3,
            3,
            3,
            3,
            3,
            3,
            3,
            3,
            3,
            3,
            3,
            3,
            3,
            3,
            3,
            3,
            3,
            3,
            3,
            3,
            3,
            3,
            3,
            3,
            3,
            3,
            3,
            3,
            3,
            3,
            3,
            3,
            3,
            3,
            3,
            3,
            3,
            3,
            3,
            3,
            3,
            3,
            3,
            3,
            3,
            3,
            3,
            3,
            3,
            3,
            3,
            3,
            3,
            3,
            3,
            3,
            3,
            3,
            3,
            3,
            3,
            3,
            3,
            3,
            3,
            3,
            3,
            3,
            3,
            3,
            3,
            3,
            3,
            3,
            3,
            3,
            3,
            3,
            3,
            3,
            3,
            3,
            3,
            3,
            3,
            3,
            3,
            3,
            3,
            3,
            3,
            3,
            3,
            3,
            3,
            3,
            3,
            3,
            3,
            3,
            3,
            3,
            3,
            3,
            3,
            3,
            3,
            3,
            3,
            3,
            3,
            3,
            3,
            3,
            3,
            3,
            3,
            3,
            3,
            3,
            3,
            3,
            3,
            3,
            3,
            3,
            3,
            3,
            3,
            3,
            3,
            3,
            3,
            3,
            3,
            3,
            3,
            3,
            3,
            3,
            3,
            3,
            3,
            3,
            3,
            3,
            3,
            3,
            3,
            3,
            3,
            3,
            3,
            3,
            3,
            3,
            3,
            3,
            3,
            3,
            3,
            3,
            3,
            3,
            3,
            3,
            3,
            3,
            3,
            3,
            3,
            3
        ]
        int[] faceVertexIndices = [
            0,
            1,
            14,
            0,
            14,
            13,
            1,
            2,
            15,
            1,
            15,
            14,
            2,
            3,
            16,
            2,
            16,
            15,
            3,
            4,
            17,
            3,
            17,
            16,
            4,
            5,
            18,
            4,
            18,
            17,
            5,
            6,
            19,
            5,
            19,
            18,
            6,
            7,
            20,
            6,
            20,
            19,
            7,
            8,
            21,
            7,
            21,
            20,
            8,
            9,
            22,
            8,
            22,
            21,
            9,
            10,
            23,
            9,
            23,
            22,
            10,
            11,
            24,
            10,
            24,
            23,
            11,
            12,
            25,
            11,
            25,
            24,
            13,
            14,
            27,
            13,
            27,
            26,
            14,
            15,
            28,
            14,
            28,
            27,
            15,
            16,
            29,
            15,
            29,
            28,
            16,
            17,
            30,
            16,
            30,
            29,
            17,
            18,
            31,
            17,
            31,
            30,
            18,
            19,
            32,
            18,
            32,
            31,
            19,
            20,
            33,
            19,
            33,
            32,
            20,
            21,
            34,
            20,
            34,
            33,
            21,
            22,
            35,
            21,
            35,
            34,
            22,
            23,
            36,
            22,
            36,
            35,
            23,
            24,
            37,
            23,
            37,
            36,
            24,
            25,
            38,
            24,
            38,
            37,
            26,
            27,
            40,
            26,
            40,
            39,
            27,
            28,
            41,
            27,
            41,
            40,
            28,
            29,
            42,
            28,
            42,
            41,
            29,
            30,
            43,
            29,
            43,
            42,
            30,
            31,
            44,
            30,
            44,
            43,
            31,
            32,
            45,
            31,
            45,
            44,
            32,
            33,
            46,
            32,
            46,
            45,
            33,
            34,
            47,
            33,
            47,
            46,
            34,
            35,
            48,
            34,
            48,
            47,
            35,
            36,
            49,
            35,
            49,
            48,
            36,
            37,
            50,
            36,
            50,
            49,
            37,
            38,
            51,
            37,
            51,
            50,
            39,
            40,
            53,
            39,
            53,
            52,
            40,
            41,
            54,
            40,
            54,
            53,
            41,
            42,
            55,
            41,
            55,
            54,
            42,
            43,
            56,
            42,
            56,
            55,
            43,
            44,
            57,
            43,
            57,
            56,
            44,
            45,
            58,
            44,
            58,
            57,
            45,
            46,
            59,
            45,
            59,
            58,
            46,
            47,
            60,
            46,
            60,
            59,
            47,
            48,
            61,
            47,
            61,
            60,
            48,
            49,
            62,
            48,
            62,
            61,
            49,
            50,
            63,
            49,
            63,
            62,
            50,
            51,
            64,
            50,
            64,
            63,
            52,
            53,
            66,
            52,
            66,
            65,
            53,
            54,
            67,
            53,
            67,
            66,
            54,
            55,
            68,
            54,
            68,
            67,
            55,
            56,
            69,
            55,
            69,
            68,
            56,
            57,
            70,
            56,
            70,
            69,
            57,
            58,
            71,
            57,
            71,
            70,
            58,
            59,
            72,
            58,
            72,
            71,
            59,
            60,
            73,
            59,
            73,
            72,
            60,
            61,
            74,
            60,
            74,
            73,
            61,
            62,
            75,
            61,
            75,
            74,
            62,
            63,
            76,
            62,
            76,
            75,
            63,
            64,
            77,
            63,
            77,
            76,
            65,
            66,
            79,
            65,
            79,
            78,
            66,
            67,
            80,
            66,
            80,
            79,
            67,
            68,
            81,
            67,
            81,
            80,
            68,
            69,
            82,
            68,
            82,
            81,
            69,
            70,
            83,
            69,
            83,
            82,
            70,
            71,
            84,
            70,
            84,
            83,
            71,
            72,
            85,
            71,
            85,
            84,
            72,
            73,
            86,
            72,
            86,
            85,
            73,
            74,
            87,
            73,
            87,
            86,
            74,
            75,
            88,
            74,
            88,
            87,
            75,
            76,
            89,
            75,
            89,
            88,
            76,
            77,
            90,
            76,
            90,
            89,
            78,
            79,
            92,
            78,
            92,
            91,
            79,
            80,
            93,
            79,
            93,
            92,
            80,
            81,
            94,
            80,
            94,
            93,
            81,
            82,
            95,
            81,
            95,
            94,
            82,
            83,
            96,
            82,
            96,
            95,
            83,
            84,
            97,
            83,
            97,
            96,
            84,
            85,
            98,
            84,
            98,
            97,
            85,
            86,
            99,
            85,
            99,
            98,
            86,
            87,
            100,
            86,
            100,
            99,
            87,
            88,
            101,
            87,
            101,
            100,
            88,
            89,
            102,
            88,
            102,
            101,
            89,
            90,
            103,
            89,
            103,
            102,
            91,
            92,
            105,
            91,
            105,
            104,
            92,
            93,
            106,
            92,
            106,
            105,
            93,
            94,
            107,
            93,
            107,
            106,
            94,
            95,
            108,
            94,
            108,
            107,
            95,
            96,
            109,
            95,
            109,
            108,
            96,
            97,
            110,
            96,
            110,
            109,
            97,
            98,
            111,
            97,
            111,
            110,
            98,
            99,
            112,
            98,
            112,
            111,
            99,
            100,
            113,
            99,
            113,
            112,
            100,
            101,
            114,
            100,
            114,
            113,
            101,
            102,
            115,
            101,
            115,
            114,
            102,
            103,
            116,
            102,
            116,
            115
        ]
    }
}
